<?xml version="1.0" standalone="no"?>
<!DOCTYPE svg PUBLIC "-//W3C//DTD SVG 20010904//EN"
 "http://www.w3.org/TR/2001/REC-SVG-20010904/DTD/svg10.dtd">
<svg version="1.0" xmlns="http://www.w3.org/2000/svg"
 width="1506.000000pt" height="1506.000000pt" viewBox="0 0 1506.000000 1506.000000"
 preserveAspectRatio="xMidYMid meet">
<metadata>
Created by potrace 1.14, written by Peter Selinger 2001-2017
</metadata>
<g transform="translate(0.000000,1506.000000) scale(0.100000,-0.100000)"
fill="#000000" stroke="none">
<path d="M0 7530 l0 -7530 1434 0 c1358 0 1435 1 1440 18 3 9 33 107 66 217
111 363 160 578 160 704 0 51 -7 81 -37 150 -35 84 -62 135 -290 561 -367 684
-543 1142 -593 1540 -57 464 93 1308 411 2316 224 711 546 1507 702 1739 66
98 301 323 437 418 l22 16 -21 30 c-13 17 -27 31 -33 31 -34 0 -377 -310 -446
-403 -15 -20 -25 -26 -36 -20 -32 18 -269 237 -431 398 -1260 1252 -1922 2599
-1825 3715 11 120 47 357 58 377 8 14 136 -44 542 -245 1196 -591 2246 -1242
2945 -1825 335 -280 643 -595 805 -825 24 -34 51 -62 59 -62 9 0 104 11 211
25 608 75 1464 147 2100 175 291 13 909 13 1120 0 306 -19 545 -52 717 -100
l73 -20 302 151 c1582 791 3165 1477 4103 1778 213 68 517 151 554 151 l24 0
-7 -182 c-16 -423 -90 -840 -217 -1236 -285 -884 -791 -1601 -1543 -2186 -182
-142 -660 -446 -701 -446 -6 0 -27 21 -45 48 -79 110 -355 362 -398 362 -4 0
-16 -15 -25 -34 l-16 -35 67 -47 c213 -151 461 -478 636 -839 143 -294 211
-492 375 -1092 66 -241 165 -598 220 -793 182 -639 413 -1588 531 -2180 140
-699 250 -1444 313 -2110 l23 -235 637 -3 637 -2 0 7350 c0 6024 -2 7350 -13
7350 -7 0 -17 -4 -22 -9 -13 -13 -174 -46 -295 -61 -52 -7 -102 -14 -112 -15
-20 -4 -75 -32 -109 -56 -14 -10 -61 -28 -103 -39 -42 -12 -102 -32 -132 -46
-30 -13 -87 -35 -126 -49 -39 -14 -104 -45 -143 -70 -40 -25 -81 -45 -92 -45
-10 0 -41 -15 -68 -32 -46 -32 -80 -52 -117 -70 -10 -4 -31 -8 -48 -8 -16 0
-30 -5 -30 -10 0 -6 -12 -16 -27 -23 -37 -16 -40 -19 -106 -113 -31 -44 -82
-105 -114 -135 -104 -99 -159 -182 -168 -259 -4 -30 -9 -64 -11 -75 -2 -10 -6
-37 -10 -59 -3 -22 -17 -62 -31 -89 -13 -27 -26 -57 -28 -66 -2 -9 -10 -42
-18 -73 -8 -31 -13 -58 -11 -60 2 -2 -3 -96 -11 -209 -22 -315 -25 -340 -30
-348 -12 -21 -76 -337 -72 -359 4 -19 -18 -69 -82 -189 -48 -89 -90 -161 -93
-158 -3 3 -24 -23 -46 -57 -27 -41 -68 -84 -118 -123 -42 -33 -78 -59 -80 -58
-5 3 -216 -86 -229 -96 -12 -11 -220 -54 -255 -53 -14 0 -59 -6 -100 -15 -41
-8 -138 -19 -215 -24 -77 -4 -198 -13 -268 -19 -84 -7 -134 -7 -146 -1 -10 6
-45 12 -77 15 -65 4 -149 22 -176 37 -10 5 -29 9 -44 9 -27 0 -63 22 -117 71
-17 16 -36 29 -43 29 -6 0 -29 20 -52 44 -23 24 -52 52 -64 62 -13 11 -36 45
-51 77 -15 32 -38 68 -50 80 -13 12 -34 54 -46 94 -13 39 -29 74 -36 77 -8 3
-23 36 -35 73 -11 37 -25 79 -31 93 -25 54 -29 69 -55 180 -37 163 -43 194
-49 253 -3 29 -10 66 -15 82 -19 67 -23 275 -21 1243 l2 1012 -5211 0 -5210 0
0 -7530z"/>
<path d="M4803 6446 c-163 -41 -297 -156 -385 -330 -94 -186 -94 -466 0 -652
116 -230 313 -356 532 -341 102 7 171 32 260 92 90 61 158 142 210 250 50 104
70 199 70 328 0 294 -158 546 -399 635 -80 29 -211 38 -288 18z m88 -202 c82
-41 129 -113 137 -211 15 -190 -168 -330 -349 -268 -105 36 -169 130 -169 247
0 79 14 119 59 171 84 95 208 119 322 61z"/>
<path d="M9623 6446 c-205 -52 -373 -232 -434 -463 -28 -108 -28 -278 0 -386
77 -295 319 -492 581 -474 102 7 171 32 260 92 318 216 378 726 121 1041 -58
71 -162 145 -246 175 -75 26 -210 34 -282 15z m88 -202 c82 -41 129 -113 137
-211 23 -285 -368 -394 -494 -138 -48 98 -34 209 35 288 84 95 208 119 322 61z"/>
<path d="M6780 4869 c-176 -22 -269 -96 -241 -190 45 -149 452 -232 674 -137
105 45 138 132 75 203 -80 92 -314 149 -508 124z"/>
<path d="M3115 4470 c-333 -51 -607 -272 -681 -550 -27 -101 -22 -245 10 -346
73 -227 276 -410 543 -490 119 -36 347 -45 474 -19 181 36 331 115 454 239
144 144 201 290 193 491 -4 92 -10 122 -34 185 -94 237 -316 415 -597 476 -87
19 -279 26 -362 14z"/>
<path d="M10968 4465 c-621 -101 -946 -694 -641 -1168 180 -280 549 -445 913
-407 413 42 724 278 816 622 23 84 23 251 1 338 -77 297 -344 531 -691 606
-101 22 -293 26 -398 9z"/>
<path d="M7087 3649 c-183 -18 -385 -77 -517 -151 -78 -44 -209 -179 -243
-250 -67 -140 -75 -315 -23 -491 100 -339 348 -574 718 -681 305 -88 693 -71
928 41 143 69 248 211 302 408 29 107 31 366 5 497 -80 398 -236 569 -570 623
-102 16 -446 19 -600 4z m655 -147 c224 -61 318 -182 385 -496 24 -112 24
-356 0 -446 -39 -145 -124 -273 -213 -318 -261 -133 -755 -119 -1049 31 -109
55 -244 167 -310 257 -123 168 -185 432 -139 591 57 194 267 333 579 383 142
23 163 24 430 21 207 -2 250 -5 317 -23z"/>
</g>
</svg>
